<svg xmlns="http://www.w3.org/2000/svg" viewBox="0 0 820 260" fill="none">
  <g fill="#ffffff">
    <g transform="scale(0.535)">
      <rect x="180" y="0" width="55" height="486"/>
      <rect x="0" y="203" width="415" height="83"/>
      <path d="M 0 244 A 207.5 207.5 0 0 1 207.5 36.5 L 207.5 94 A 150 150 0 0 0 57.5 244 Z"/>
      <path d="M 207.5 36.5 A 207.5 207.5 0 0 1 415 244 L 357.5 244 A 150 150 0 0 0 207.5 94 Z"/>
      <path d="M 207.5 451.5 A 207.5 207.5 0 0 1 0 244 L 57.5 244 A 150 150 0 0 0 207.5 394 Z"/>
      <path d="M 415 244 A 207.5 207.5 0 0 1 207.5 451.5 L 207.5 394 A 150 150 0 0 0 357.5 244 Z"/>
    </g>
    <rect x="250" y="30" width="11" height="200"/>
    <text x="288" y="202" font-family="'Segoe UI', Arial, Helvetica, sans-serif" font-size="250" font-weight="800" letter-spacing="6">UTN</text>
  </g>
</svg>
