<svg xmlns="http://www.w3.org/2000/svg" viewBox="0 0 415 486" fill="#1d1d1b">
  <rect x="180" y="0" width="55" height="486"/>
  <rect x="0" y="203" width="415" height="83"/>
  <path d="M 0 244 A 207.5 207.5 0 0 1 207.5 36.5 L 207.5 94 A 150 150 0 0 0 57.5 244 Z"/>
  <path d="M 207.5 36.5 A 207.5 207.5 0 0 1 415 244 L 357.5 244 A 150 150 0 0 0 207.5 94 Z"/>
  <path d="M 207.5 451.5 A 207.5 207.5 0 0 1 0 244 L 57.5 244 A 150 150 0 0 0 207.5 394 Z"/>
  <path d="M 415 244 A 207.5 207.5 0 0 1 207.5 451.5 L 207.5 394 A 150 150 0 0 0 357.5 244 Z"/>
</svg>
